# xmcd
#
# Track frame offsets:
#	150
#	23523
#	42471
#	60894
#	81267
#	99540
#	119013
#	138636
#	159909
#	177507
#	196905
#	217203
#	238401
#	256749
#	275022
#	293745
#
# Disc length: 4151 seconds
# Revision: 0
# Processed by: cddbd v1.5.2PL0 Copyright (c) Steve Scherf et al.
# Submitted via: dBpowerAMP V12.0
#
DISCID=ee103510
DTITLE=Various Artist - ลูกทุ้งแกรมมี่ บิ๊กฮิต2558
DYEAR=2015
DGENRE=Country
TTITLE0=รวมศิลปิน - ไม่มีข้อแม้ตั้งแต่เริ่มต้น
TTITLE1=อยากหลับตาในอ้อมกอดเธอ
TTITLE2=รักจนไม่รู้ว่าจะรักยังไง
TTITLE3=รอสายคนโสด
TTITLE4=เอาผัวไปเทิร์น
TTITLE5=น้องมีผัวแล้ว
TTITLE6=ให้เขาไปหรือให้อ้ายเจ็บ
TTITLE7=อ้ายลืมทุกคำ น้องจำทุกนาที
TTITLE8=อ้ายเพิ่งรู้ หรือ เจ้าเพิ่งทำ
TTITLE9=อ้ายเขี่ยน้องถิ่ม
TTITLE10=ฮักมากแค่ไหน เมื่อคนหมดใจต้องปล่อย
TTITLE11=เจ็บเมื่อไหร่ก็โทรมา
TTITLE12=จุดไฟใต้ฝน
TTITLE13=ในความรู้สึกของเธอ
TTITLE14=เงยหน้าขึ้นฟ้า
TTITLE15=เหนื่อยไหมครับพี่น้อง
EXTD=
EXTT0=
EXTT1=
EXTT2=
EXTT3=
EXTT4=
EXTT5=
EXTT6=
EXTT7=
EXTT8=
EXTT9=
EXTT10=
EXTT11=
EXTT12=
EXTT13=
EXTT14=
EXTT15=
PLAYORDER=
